<?xml version="1.0" encoding="UTF-8"?>
<svg version="1.1" xmlns="http://www.w3.org/2000/svg" width="553" height="682">
<path d="M0 0 C0.74636719 -0.01546875 1.49273437 -0.0309375 2.26171875 -0.046875 C6.1114474 -0.01962028 8.08471145 0.24072225 11.421875 2.32421875 C15.60749043 6.70652663 17.41603967 12.50011588 17.5 18.5 C16.92402963 22.85690086 16.02053436 27.13649624 15.125 31.4375 C13.13006198 41.50857705 11.67302148 51.22881607 11.5 61.5 C12.70527344 61.46519531 13.91054688 61.43039063 15.15234375 61.39453125 C71.50908527 60.30575239 143.28659471 69.11030527 189.5 103.5 C190.31597656 104.08394531 191.13195312 104.66789062 191.97265625 105.26953125 C197.22709415 109.15553457 201.37907148 113.45093443 205.5 118.5 C206.42039062 119.5209375 206.42039062 119.5209375 207.359375 120.5625 C235.53906172 153.0254991 242.65500413 204.20399101 247.24420166 245.24224854 C247.50712267 247.56286681 247.78313378 249.88169802 248.06005859 252.20068359 C254.57079248 307.77946282 255.12682104 367.02533951 247.5 422.5 C247.38638123 423.33825317 247.27276245 424.17650635 247.15570068 425.04016113 C245.53591741 436.90812938 243.65022251 448.71694369 241.5 460.5 C241.18893311 462.21896484 241.18893311 462.21896484 240.87158203 463.97265625 C234.98287865 495.62750142 224.05194083 524.09511133 201.5 547.5 C200.90574219 548.15742187 200.31148438 548.81484375 199.69921875 549.4921875 C192.35938779 557.39662084 182.93005964 562.99439061 173.375 567.8125 C172.7550415 568.12566162 172.13508301 568.43882324 171.49633789 568.76147461 C125.40520036 591.18726518 64.08577359 594.49416979 13.5 598.5 C12.60732422 598.57202637 11.71464844 598.64405273 10.79492188 598.71826172 C5.69795846 599.11364345 0.61043524 599.36893715 -4.5 599.5 C-5.54510742 599.52723145 -6.59021484 599.55446289 -7.66699219 599.58251953 C-11.19469636 599.66118783 -14.72165275 599.7104293 -18.25 599.75 C-19.37067871 599.77151123 -20.49135742 599.79302246 -21.64599609 599.81518555 C-28.96751118 599.84466741 -33.44332182 599.05907941 -39.1875 594.25 C-42.68830933 590.08687539 -44.30536374 586.3490445 -44.875 580.9375 C-44.14774125 574.27096145 -41.17611172 570.84122493 -36.21875 566.69921875 C-33.14227674 564.55267945 -30.25233803 564.33022587 -26.61499023 564.14282227 C-25.6180162 564.08929092 -24.62104218 564.03575958 -23.59385681 563.98060608 C-22.50972 563.92642014 -21.42558319 563.87223419 -20.30859375 563.81640625 C-19.17591568 563.75597641 -18.04323761 563.69554657 -16.87623596 563.63328552 C-13.23018612 563.43907897 -9.58388612 563.25027912 -5.9375 563.0625 C29.01794851 561.33152204 29.01794851 561.33152204 63.8125 557.6875 C65.73570068 557.43202393 65.73570068 557.43202393 67.69775391 557.17138672 C123.90536751 550.3612837 123.90536751 550.3612837 172.5 523.5 C173.32113281 522.77296875 174.14226562 522.0459375 174.98828125 521.296875 C186.21920077 510.74714656 193.71281271 498.08516723 198.5 483.5 C198.8705249 482.38407471 198.8705249 482.38407471 199.24853516 481.24560547 C204.20948541 465.96688407 206.99735418 450.34074327 209.5 434.5 C209.65065918 433.57654785 209.80131836 432.6530957 209.95654297 431.70166016 C211.03163807 424.98896389 211.82479564 418.26408429 212.5 411.5 C212.56680969 410.833172 212.63361938 410.16634399 212.70245361 409.47930908 C219.51812367 340.36743402 219.71691744 264.19143893 202.5 196.5 C202.28794922 195.65743652 202.07589844 194.81487305 201.85742188 193.94677734 C197.2799275 176.25510319 190.69842949 157.14609412 179.5 142.5 C178.63375 141.33017578 178.63375 141.33017578 177.75 140.13671875 C160.08504629 118.23953654 122.61858849 110.66751121 96.5 105.5 C95.3143042 105.25991211 94.1286084 105.01982422 92.90698242 104.77246094 C82.92257374 102.79266465 72.92968886 101.46106322 62.8125 100.375 C62.03128784 100.28906586 61.25007568 100.20313171 60.44519043 100.11459351 C49.50804375 98.91500217 38.61253143 97.99115451 27.609375 97.67578125 C23.52614932 97.54902709 19.54518055 97.06284752 15.5 96.5 C27.35399882 131.06025009 51.86552071 161.86733541 73.34082031 191.11376953 C84.42281732 206.25867519 94.70225073 221.91332126 103.5 238.5 C104.01554443 239.46534668 104.01554443 239.46534668 104.54150391 240.45019531 C126.76069218 282.38617619 132.01828351 329.62417785 118.18261719 375.31542969 C110.60960241 399.55124379 98.09084947 420.28888081 80.5 438.5 C79.63761719 439.42554688 78.77523438 440.35109375 77.88671875 441.3046875 C56.21364274 463.97311959 17.657886 486.68480467 -13.796875 490.80053711 C-16.21124077 491.1462527 -18.25211329 491.5481747 -20.5 492.5 C-22.30127072 495.30234869 -23.15556137 497.21205728 -24.125 500.3125 C-24.77336881 502.12772678 -25.42610359 503.94139714 -26.08203125 505.75390625 C-26.45021973 506.79949707 -26.8184082 507.84508789 -27.19775391 508.92236328 C-29.87371415 516.27397959 -32.86758208 523.50295063 -35.8125 530.75 C-36.13752502 531.55338806 -36.46255005 532.35677612 -36.79742432 533.18450928 C-41.97959443 545.9893891 -47.40116055 558.6377174 -53.36132812 571.10400391 C-54.42607646 573.3444499 -55.45907461 575.59676764 -56.484375 577.85546875 C-59.86330534 585.15629047 -63.04583394 590.77291697 -70.5 594.5 C-118.56481716 597.92918579 -186.74949277 586.64256796 -224.5625 555.1875 C-270.25862092 515.00899928 -278.6174181 435.58107071 -282.32402802 378.67622375 C-283.25669992 361.84186996 -283.08775231 344.94474066 -283.02148438 328.09106445 C-282.99860352 322.21691452 -283.01231868 316.34348623 -283.03525734 310.46936035 C-283.20219968 259.97016491 -279.76058396 207.15818031 -261.5 159.5 C-261.11207275 158.48486328 -261.11207275 158.48486328 -260.71630859 157.44921875 C-254.79682714 142.30113898 -246.3750662 128.6135079 -235.5 116.5 C-234.81679687 115.73429687 -234.13359375 114.96859375 -233.4296875 114.1796875 C-196.63561338 75.21326952 -124.71643768 64.1911522 -73.73681641 62.56298828 C-72.99866699 62.54220215 -72.26051758 62.52141602 -71.5 62.5 C-70.63681152 62.47276855 -69.77362305 62.44553711 -68.88427734 62.41748047 C-66.0894825 62.33939711 -63.29558363 62.28993341 -60.5 62.25 C-59.20896362 62.21773315 -59.20896362 62.21773315 -57.8918457 62.18481445 C-50.62188573 62.14743858 -44.0665236 63.10085838 -38.625 68.1875 C-35.43429528 73.16124559 -33.45940434 77.14545192 -33.5625 83.125 C-35.01774878 88.36389561 -37.17070365 91.45353266 -41.4375 94.8125 C-46.4379363 97.56784245 -51.16076532 97.66227422 -56.80859375 97.89453125 C-58.27746371 97.96040831 -59.74629382 98.02717854 -61.21508789 98.09472656 C-61.98450714 98.12957153 -62.75392639 98.1644165 -63.54666138 98.20031738 C-90.35511873 99.45822031 -116.43559467 102.94294143 -142.5 109.5 C-144.12276855 109.90822998 -144.12276855 109.90822998 -145.77832031 110.32470703 C-171.7232299 116.97216739 -201.60007347 125.19460998 -216.25 149.625 C-217.72990157 152.21887345 -219.12854973 154.84741133 -220.5 157.5 C-220.84514648 158.15742188 -221.19029297 158.81484375 -221.54589844 159.4921875 C-242.09825875 199.16885681 -244.6968637 244.55104276 -247.3671875 288.32946777 C-247.48287593 290.22014419 -247.6024304 292.11058326 -247.72265625 294.00097656 C-249.48064761 322.19429549 -248.66113018 350.36111784 -246.5 378.5 C-246.44908203 379.16429016 -246.39816406 379.82858032 -246.34570312 380.51300049 C-242.50209169 429.92499731 -236.48601274 490.19187329 -201.5 528.5 C-199.36336146 530.13727091 -197.33329315 531.58958337 -195.0625 533 C-194.44689209 533.38454346 -193.83128418 533.76908691 -193.19702148 534.1652832 C-179.87517565 542.27858781 -165.56017667 545.98221429 -150.5 549.5 C-149.45602051 549.7482251 -148.41204102 549.9964502 -147.33642578 550.25219727 C-137.42187586 552.50498012 -127.45243566 553.80997641 -117.375 555.0625 C-114.08032274 555.47730674 -110.78610765 555.89563125 -107.4921875 556.31640625 C-106.32027863 556.4656102 -106.32027863 556.4656102 -105.12469482 556.61782837 C-98.88908731 557.4231416 -92.6890925 558.38990761 -86.5 559.5 C-86.38333984 558.95150391 -86.26667969 558.40300781 -86.14648438 557.83789062 C-85.39229538 555.11050625 -84.3203007 552.67414939 -83.15625 550.09375 C-82.6605249 548.98032227 -82.1647998 547.86689453 -81.65405273 546.71972656 C-81.3858371 546.11777466 -81.11762146 545.51582275 -80.84127808 544.89562988 C-71.60317172 524.07964649 -63.49652592 502.81752504 -55.5 481.5 C-55.22047485 480.75657349 -54.94094971 480.01314697 -54.6529541 479.24719238 C-35.91225619 429.30777188 -19.07879601 377.04606259 -9.5 324.5 C-9.3158252 323.4903418 -9.13165039 322.48068359 -8.94189453 321.44042969 C-7.73916848 314.56230532 -6.92998806 307.70904784 -6.375 300.75 C-6.2915332 299.70360352 -6.20806641 298.65720703 -6.12207031 297.57910156 C-4.19779364 272.06083669 -4.08740793 240.44986718 -21.3125 219.625 C-26.81336019 213.73939155 -32.92703789 210.81735004 -40.93359375 210.26171875 C-59.00231897 209.75861365 -74.22238717 216.19391982 -87.5 228.5 C-105.86536793 246.70999257 -111.640207 274.73601563 -114.5 299.5 C-114.63148438 300.60730469 -114.76296875 301.71460938 -114.8984375 302.85546875 C-119.37980387 347.72969141 -105.49909536 394.22060123 -77.5 429.5 C-74.76551402 432.69425101 -71.88089031 435.73404892 -68.984375 438.78125 C-62.11731471 446.29614617 -56.91100786 453.56732833 -57.11328125 463.9921875 C-57.72691176 467.97148841 -59.56811923 470.78415255 -62.5 473.5 C-67.03029678 476.27059473 -71.34084067 476.27458453 -76.5 475.5 C-86.28618299 472.26871316 -93.44095767 465.70484876 -100.5 458.5 C-101.7065625 457.27410156 -101.7065625 457.27410156 -102.9375 456.0234375 C-124.95843062 432.54973715 -137.67273634 400.82588533 -145.25 370 C-145.43651123 369.25580811 -145.62302246 368.51161621 -145.81518555 367.74487305 C-149.54287485 351.72534149 -151.00377678 335.63122605 -150.89111328 319.21557617 C-150.87498107 316.43423635 -150.89111128 313.65434438 -150.91015625 310.87304688 C-150.93028473 294.53779492 -149.0358769 278.60303821 -144.75 262.8125 C-144.49250977 261.8539209 -144.23501953 260.8953418 -143.96972656 259.90771484 C-138.13310579 238.90498883 -128.29799319 220.53303056 -113.5 204.5 C-112.84644531 203.76523438 -112.19289062 203.03046875 -111.51953125 202.2734375 C-95.02273756 184.6158886 -71.17235743 174.47520409 -47.21875 173.46875 C-27.13593046 173.63751319 -9.84636678 180.38346679 4.2199707 194.68286133 C28.17151619 220.23457556 31.66965922 257.50977269 30.79267883 290.80593872 C30.05569059 312.26594763 26.53233662 333.65874608 21.5 354.5 C21.0985376 356.17787598 21.0985376 356.17787598 20.68896484 357.88964844 C13.11756102 389.15856294 3.51384438 419.93709975 -6.5 450.5 C14.51067188 443.21114668 32.37702436 432.95452723 48.5 417.5 C49.30824219 416.75492187 50.11648438 416.00984375 50.94921875 415.2421875 C74.75145245 392.59830427 88.13326351 360.03657698 89.40625 327.40966797 C89.46328727 325.10583774 89.49139926 322.80449203 89.5 320.5 C89.50402832 319.82404785 89.50805664 319.1480957 89.51220703 318.45166016 C89.31345175 271.44018974 58.4534926 231.24356242 32.18383789 195.00317383 C22.15681287 181.14323023 12.69683238 166.92269074 3.5 152.5 C2.9937207 151.7073877 2.48744141 150.91477539 1.96582031 150.09814453 C-14.09835665 124.81154991 -23.15723802 98.65110994 -24.5 68.5 C-24.57927734 66.95892578 -24.57927734 66.95892578 -24.66015625 65.38671875 C-25.15858255 46.25148286 -25.17997056 16.83799707 -11.28125 2.15625 C-7.45380499 -0.12301501 -4.37393924 -0.09065159 0 0 Z " fill="#007D37" transform="translate(282.5,-0.5)"/>
<path d="M0 0 C4.86415832 1.63322104 8.24473566 4.71403325 11 9 C13.05757612 13.89036577 13.13176366 18.2282109 12.9375 23.4375 C12.75879806 34.15632738 13.91678128 44.10315854 18.6875 53.875 C21.04340841 58.7085507 22.22186839 62.66287889 21 68 C18.75587465 73.14774875 15.72572785 76.9142202 11 80 C4.90965714 80.96875629 -1.00580311 80.92833304 -6.625 78.3125 C-19.43754707 65.83712522 -23.04192626 46.09369515 -23.41455078 28.85913086 C-23.42212402 27.85374268 -23.42969727 26.84835449 -23.4375 25.8125 C-23.44765137 24.85674072 -23.45780273 23.90098145 -23.46826172 22.91625977 C-23.38492948 16.2537882 -22.73596914 10.21125999 -18.24609375 4.94140625 C-17.64925781 4.48636719 -17.05242187 4.03132812 -16.4375 3.5625 C-15.83808594 3.08941406 -15.23867187 2.61632812 -14.62109375 2.12890625 C-10.15745591 -0.97950661 -5.2594255 -0.52303679 0 0 Z " fill="#007C36" transform="translate(211,602)"/>
</svg>
